<svg width="466.00000000000006" height="117.29566604931281" viewBox="0 0 370.5 93.2576057323399" class="css-1j8o68f"><defs id="SvgjsDefs7588"></defs><g id="SvgjsG7589" featurekey="9id2mP-0" transform="matrix(0.9325574164204523,0,0,0.9325574164204523,-2.8778721550566977,0.0009324898253601496)" fill="#ec729c"><rect xmlns="http://www.w3.org/2000/svg" x="42.607" y="47.076" transform="matrix(0.7761 0.6306 -0.6306 0.7761 46.5672 -14.0771)" width="1" height="22.92"></rect><rect xmlns="http://www.w3.org/2000/svg" x="45.986" y="57.948" transform="matrix(0.6084 0.7937 -0.7937 0.6084 68.7434 -22.4141)" width="22.194" height="1"></rect><rect xmlns="http://www.w3.org/2000/svg" x="61.209" y="34.391" transform="matrix(0.285 0.9585 -0.9585 0.285 88.4619 -26.0748)" width="1" height="23.738"></rect><rect xmlns="http://www.w3.org/2000/svg" x="38.984" y="37.368" transform="matrix(0.0074 1 -1 0.0074 88.2466 -13.1692)" width="23.546" height="1"></rect><rect xmlns="http://www.w3.org/2000/svg" x="27.744" y="45.76" transform="matrix(0.9562 0.2928 -0.2928 0.9562 15.2685 -9.4777)" width="23.094" height="1"></rect><rect xmlns="http://www.w3.org/2000/svg" x="35.832" y="34.683" transform="matrix(0.9456 0.3253 -0.3253 0.9456 16.6429 -9.3663)" width="1" height="20.809"></rect><rect xmlns="http://www.w3.org/2000/svg" x="31.072" y="60.446" transform="matrix(0.8221 0.5694 -0.5694 0.8221 42.108 -12.8663)" width="21.141" height="1"></rect><rect xmlns="http://www.w3.org/2000/svg" x="58.047" y="51.212" transform="matrix(0.5722 0.8201 -0.8201 0.5722 75.2668 -21.8197)" width="1" height="20.036"></rect><rect xmlns="http://www.w3.org/2000/svg" x="53.541" y="45.129" transform="matrix(0.2845 0.9587 -0.9587 0.2845 89.4167 -28.5477)" width="20.584" height="1"></rect><rect xmlns="http://www.w3.org/2000/svg" x="39.708" y="35.004" transform="matrix(0.9997 0.0243 -0.0243 0.9997 0.8776 -1.2119)" width="21.201" height="1"></rect><rect xmlns="http://www.w3.org/2000/svg" x="36.331" y="59.987" transform="matrix(0.5784 0.8158 -0.8158 0.5784 77.9659 2.2244)" width="1" height="33.1"></rect><rect xmlns="http://www.w3.org/2000/svg" x="55.959" y="70.302" transform="matrix(0.3351 0.9422 -0.9422 0.3351 114.7194 -20.9532)" width="32.492" height="1"></rect><rect xmlns="http://www.w3.org/2000/svg" x="76.946" y="19.044" transform="matrix(0.0107 0.9999 -0.9999 0.0107 112.198 -42.2379)" width="1" height="33.083"></rect><rect xmlns="http://www.w3.org/2000/svg" x="44.371" y="2.123" transform="matrix(0.9527 0.3039 -0.3039 0.9527 7.9224 -12.733)" width="0.999" height="33.928"></rect><rect xmlns="http://www.w3.org/2000/svg" x="3.101" y="44.487" transform="matrix(0.8004 0.5995 -0.5995 0.8004 30.9 -2.8183)" width="33.161" height="1"></rect><rect xmlns="http://www.w3.org/2000/svg" x="13.446" y="11.595" transform="matrix(0.9605 0.2782 -0.2782 0.9605 11.716 -2.2955)" width="1" height="57.08"></rect><rect xmlns="http://www.w3.org/2000/svg" x="1.626" y="81.812" transform="matrix(0.8375 0.5464 -0.5464 0.8375 49.6273 -2.2773)" width="54.033" height="1"></rect><rect xmlns="http://www.w3.org/2000/svg" x="71.659" y="52.69" transform="matrix(0.6376 0.7704 -0.7704 0.6376 87.6254 -26.6706)" width="1" height="54.215"></rect><rect xmlns="http://www.w3.org/2000/svg" x="55.738" y="36.926" transform="matrix(0.377 0.9262 -0.9262 0.377 86.266 -53.4047)" width="54.19" height="1"></rect><rect xmlns="http://www.w3.org/2000/svg" x="46.824" y="-12.954" transform="matrix(0.0146 0.9999 -0.9999 0.0146 58.9718 -35.1579)" width="1" height="50.592"></rect><rect xmlns="http://www.w3.org/2000/svg" x="6.016" y="66.991" width="29.866" height="1"></rect><rect xmlns="http://www.w3.org/2000/svg" x="9.472" y="27.565" transform="matrix(0.2024 0.9793 -0.9793 0.2024 47.599 -2.3107)" width="31.493" height="1"></rect><rect xmlns="http://www.w3.org/2000/svg" x="61.126" y="6.058" transform="matrix(0.5429 0.8398 -0.8398 0.5429 44.2475 -43)" width="1" height="26.18"></rect><rect xmlns="http://www.w3.org/2000/svg" x="69.065" y="52.2" transform="matrix(0.7128 0.7014 -0.7014 0.7128 60.8208 -43.1259)" width="28.006" height="1"></rect><rect xmlns="http://www.w3.org/2000/svg" x="57.052" y="65.986" transform="matrix(0.9215 0.3885 -0.3885 0.9215 36.441 -15.9049)" width="1" height="32.356"></rect><circle xmlns="http://www.w3.org/2000/svg" cx="6.41" cy="35.047" r="2.928"></circle><circle xmlns="http://www.w3.org/2000/svg" cx="32.979" cy="55.017" r="4.79"></circle><circle xmlns="http://www.w3.org/2000/svg" cx="93.05" cy="62.521" r="2.928"></circle><circle xmlns="http://www.w3.org/2000/svg" cx="93.987" cy="35.41" r="2.927"></circle><circle xmlns="http://www.w3.org/2000/svg" cx="51.269" cy="97.073" r="2.928"></circle><circle xmlns="http://www.w3.org/2000/svg" cx="6.014" cy="67.55" r="2.928"></circle><circle xmlns="http://www.w3.org/2000/svg" cx="50.332" cy="49.641" r="5.511"></circle><circle xmlns="http://www.w3.org/2000/svg" cx="39.816" cy="35" r="4.789"></circle><circle xmlns="http://www.w3.org/2000/svg" cx="60.904" cy="35.842" r="4.79"></circle><circle xmlns="http://www.w3.org/2000/svg" cx="77.649" cy="86.109" r="2.927"></circle><circle xmlns="http://www.w3.org/2000/svg" cx="50.635" cy="67.21" r="4.79"></circle><circle xmlns="http://www.w3.org/2000/svg" cx="66.735" cy="55.478" r="4.79"></circle><circle xmlns="http://www.w3.org/2000/svg" cx="28.249" cy="42.878" r="2.028"></circle><circle xmlns="http://www.w3.org/2000/svg" cx="50.633" cy="26.257" r="1.929"></circle><circle xmlns="http://www.w3.org/2000/svg" cx="35.881" cy="67.432" r="2.128"></circle><circle xmlns="http://www.w3.org/2000/svg" cx="63.833" cy="67.256" r="2.053"></circle><circle xmlns="http://www.w3.org/2000/svg" cx="50.031" cy="2.927" r="2.928"></circle><circle xmlns="http://www.w3.org/2000/svg" cx="72.616" cy="12.331" r="2.928"></circle><circle xmlns="http://www.w3.org/2000/svg" cx="73.085" cy="42.878" r="2.225"></circle><circle xmlns="http://www.w3.org/2000/svg" cx="23.331" cy="86.109" r="2.928"></circle><circle xmlns="http://www.w3.org/2000/svg" cx="22.03" cy="12.645" r="2.928"></circle></g><g id="SvgjsG7590" featurekey="zfl5BF-0" transform="matrix(1.29860512725284,0,0,1.29860512725284,106.75333933791102,21.169339829538828)" fill="#111111"><path d="M7.78 13.98 l0 -1.66 l6.3 0 l0 7.68 l-1.26 0 l-0.46 -1.86 c-0.98 1.36 -2.78 2.24 -4.74 2.24 c-2.46 0 -3.66 -0.9 -4.4 -1.62 c-2.2 -2.08 -2.26 -4.54 -2.26 -6.06 c0 -3.5 2.12 -7.44 6.8 -7.44 c2.68 0 5.66 1.52 6.08 4.74 l-1.88 0 c-0.62 -2.5 -2.72 -3.02 -4.3 -3.02 c-2.58 0 -4.7 2.06 -4.7 5.82 c0 2.92 0.96 5.92 4.78 5.92 c0.72 0 1.88 -0.08 2.94 -0.92 c1.26 -1 1.58 -2.28 1.58 -3.82 l-4.48 0 z M19.26 13.84 l0 6.16 l-1.94 0 l0 -14.36 l6.64 0 c2.36 0 4.72 0.82 4.72 3.86 c0 2.12 -1.08 2.9 -2 3.44 c0.82 0.34 1.64 0.7 1.72 2.7 l0.12 2.6 c0.02 0.8 0.12 1.1 0.72 1.44 l0 0.32 l-2.38 0 c-0.28 -0.88 -0.34 -3.06 -0.34 -3.6 c0 -1.18 -0.24 -2.56 -2.56 -2.56 l-4.7 0 z M19.26 7.300000000000001 l0 4.88 l4.5 0 c1.42 0 2.92 -0.36 2.92 -2.48 c0 -2.22 -1.62 -2.4 -2.58 -2.4 l-4.84 0 z M39.54 15.82 l-5.76 0 l-1.5 4.18 l-2 0 l5.4 -14.36 l2.2 0 l5.2 14.36 l-2.12 0 z M34.38 14.1 l4.46 0 l-2.12 -6.32 l-0.04 0 z M47 7.300000000000001 l0 4.98 l3.86 0 c1.74 0 2.92 -0.64 2.92 -2.58 c0 -1.82 -1.24 -2.4 -2.84 -2.4 l-3.94 0 z M47 13.940000000000001 l0 6.06 l-1.94 0 l0 -14.36 l6.46 0 c2.66 0 4.26 1.72 4.26 4.04 c0 2 -1.14 4.26 -4.26 4.26 l-4.52 0 z M67.66000000000001 11.58 l0 -5.94 l1.94 0 l0 14.36 l-1.94 0 l0 -6.7 l-7.5 0 l0 6.7 l-1.94 0 l0 -14.36 l1.94 0 l0 5.94 l7.5 0 z M79.52000000000001 17.04 l0.98 -1.2 l1.82 1.42 c1.02 -1.02 1.58 -2.6 1.58 -4.44 c0 -3.38 -1.88 -5.84 -5 -5.84 s-5 2.46 -5 5.84 s1.88 5.84 5 5.84 c0.8 0 1.52 -0.16 2.12 -0.46 z M85.78 19.96 l-0.98 1.16 l-2.2 -1.7 c-0.94 0.6 -2.18 0.96 -3.7 0.96 c-5.36 0 -7 -4.46 -7 -7.56 s1.64 -7.56 7 -7.56 s7 4.46 7 7.56 c0 1.82 -0.56 4.08 -2.08 5.62 z M90.14 5.640000000000001 l0 12.64 l7.28 0 l0 1.72 l-9.22 0 l0 -14.36 l1.94 0 z M111.14000000000001 13.98 l0 -1.66 l6.3 0 l0 7.68 l-1.26 0 l-0.46 -1.86 c-0.98 1.36 -2.78 2.24 -4.74 2.24 c-2.46 0 -3.66 -0.9 -4.4 -1.62 c-2.2 -2.08 -2.26 -4.54 -2.26 -6.06 c0 -3.5 2.12 -7.44 6.8 -7.44 c2.68 0 5.66 1.52 6.08 4.74 l-1.88 0 c-0.62 -2.5 -2.72 -3.02 -4.3 -3.02 c-2.58 0 -4.7 2.06 -4.7 5.82 c0 2.92 0.96 5.92 4.78 5.92 c0.72 0 1.88 -0.08 2.94 -0.92 c1.26 -1 1.58 -2.28 1.58 -3.82 l-4.48 0 z M128.46 15.82 l-5.76 0 l-1.5 4.18 l-2 0 l5.4 -14.36 l2.2 0 l5.2 14.36 l-2.12 0 z M123.30000000000001 14.1 l4.46 0 l-2.12 -6.32 l-0.04 0 z M132.54000000000002 7.359999999999999 l0 -1.72 l11.66 0 l0 1.72 l-4.86 0 l0 12.64 l-1.94 0 l0 -12.64 l-4.86 0 z M156.8 18.28 l0 1.72 l-10.6 0 l0 -14.36 l10.46 0 l0 1.72 l-8.52 0 l0 4.4 l7.86 0 l0 1.72 l-7.86 0 l0 4.8 l8.66 0 z M167.24 8.1 l-3.32 11.9 l-2.04 0 l-3.74 -14.36 l2.1 0 l2.68 11.68 l0.04 0 l3.22 -11.68 l2.12 0 l3.22 11.68 l0.04 0 l2.68 -11.68 l2.14 0 l-3.78 14.36 l-2.04 0 l-3.28 -11.9 l-0.04 0 z M186.24 15.82 l-5.76 0 l-1.5 4.18 l-2 0 l5.4 -14.36 l2.2 0 l5.2 14.36 l-2.12 0 z M181.08 14.1 l4.46 0 l-2.12 -6.32 l-0.04 0 z M197.68 14.219999999999999 l0 5.78 l-1.94 0 l0 -5.78 l-5.42 -8.58 l2.26 0 l4.12 6.9 l4.12 -6.9 l2.28 0 z"></path></g><g id="SvgjsG7591" featurekey="pYXC9J-0" transform="matrix(0.4722135328448685,0,0,0.4722135328448685,107.26334691578228,56.41227906293068)" fill="#ec729c"><path d="M3.48 5.84 l0 8.74 c0 1.16 0.32334 2.1134 0.97 2.86 s1.51 1.12 2.59 1.12 s1.9433 -0.37334 2.59 -1.12 s0.97 -1.7 0.97 -2.86 l0 -8.74 l1.92 0 l0 9.06 c0 0.97334 -0.23 1.8833 -0.69 2.73 s-1.1133 1.5133 -1.96 2 s-1.79 0.73 -2.83 0.73 c-1.6 0 -2.9134 -0.52334 -3.94 -1.57 s-1.54 -2.3434 -1.54 -3.89 l0 -9.06 l1.92 0 z M22.044 5.84 l7.8 11.64 l0.04 0 l0 -11.64 l1.92 0 l0 14.16 l-2.44 0 l-7.88 -11.64 l-0.04 0 l0 11.64 l-1.92 0 l0 -14.16 l2.52 0 z M40.98800000000001 5.84 l0 14.16 l-1.92 0 l0 -14.16 l1.92 0 z M57.152 5.84 l0 1.8 l-6.98 0 l0 4.44 l6.5 0 l0 1.8 l-6.5 0 l0 6.12 l-1.92 0 l0 -14.16 l8.9 0 z M63.796 5.84 l3.86 6.22 l3.98 -6.22 l2.34 0 l-5.36 8.12 l0 6.04 l-1.92 0 l0 -6.04 l-5.36 -8.12 l2.46 0 z M94.924 5.48 c2.36 0 4.1134 0.6133 5.26 1.84 l-1.36 1.46 c-1.0533 -1 -2.36 -1.5 -3.92 -1.5 s-2.84 0.53666 -3.84 1.61 s-1.5 2.4166 -1.5 4.03 c0 1.6267 0.53 2.9734 1.59 4.04 s2.3634 1.6 3.91 1.6 c1.4667 0 2.6266 -0.24666 3.48 -0.74 l0 -3.94 l-3.14 0 l0 -1.8 l5.06 0 l0 6.98 c-0.69334 0.41334 -1.53 0.73334 -2.51 0.96 s-1.93 0.34 -2.85 0.34 c-2.2266 0 -4.0466 -0.69334 -5.46 -2.08 s-2.12 -3.1734 -2.12 -5.36 c0 -2.1066 0.69666 -3.8734 2.09 -5.3 s3.1634 -2.14 5.31 -2.14 z M112.668 5.84 c1.3867 0 2.4734 0.34666 3.26 1.04 s1.18 1.6667 1.18 2.92 c0 0.94666 -0.32334 1.7733 -0.97 2.48 s-1.4767 1.1267 -2.49 1.26 l-0.02 0 l4.02 6.46 l-2.4 0 l-3.6 -6.24 l-2.14 0 l0 6.24 l-1.92 0 l0 -14.16 l5.08 0 z M112.108 12.08 c1 0 1.7433 -0.18336 2.23 -0.55002 s0.73 -0.94332 0.73 -1.73 c0 -1.52 -0.98666 -2.28 -2.96 -2.28 l-2.6 0 l0 4.56 l2.6 0 z M129.612 5.84 l6.06 14.16 l-2.24 0 l-1.42 -3.5 l-6.74 0 l-1.4 3.5 l-2.24 0 l6.24 -14.16 l1.74 0 z M125.952 14.82 l5.36 0 l-2.64 -6.5 l-0.04 0 z M146.216 5.84 c1.3733 0 2.4566 0.34 3.25 1.02 s1.19 1.66 1.19 2.94 c0 1.24 -0.39334 2.21 -1.18 2.91 s-1.8733 1.05 -3.26 1.05 l-3.16 0 l0 6.24 l-1.92 0 l0 -14.16 l5.08 0 z M145.656 12.08 c1 0 1.7433 -0.18336 2.23 -0.55002 s0.73 -0.94332 0.73 -1.73 c0 -1.52 -0.98666 -2.28 -2.96 -2.28 l-2.6 0 l0 4.56 l2.6 0 z M158.54000000000002 5.84 l0 5.88 l7.34 0 l0 -5.88 l1.92 0 l0 14.16 l-1.92 0 l0 -6.48 l-7.34 0 l0 6.48 l-1.92 0 l0 -14.16 l1.92 0 z M188.30800000000002 5.48 c1.84 0 3.2 0.54006 4.08 1.6201 l-1.56 1.42 c-0.24 -0.37334 -0.58 -0.67334 -1.02 -0.9 s-0.94666 -0.34 -1.52 -0.34 c-0.82666 0 -1.49 0.20334 -1.99 0.61 s-0.75 0.93 -0.75 1.57 c0 1.0667 0.70666 1.8133 2.12 2.24 l1.78 0.58 c1 0.32 1.7633 0.76666 2.29 1.34 s0.79 1.36 0.79 2.36 c0 1.3067 -0.46334 2.3634 -1.39 3.17 s-2.1034 1.21 -3.53 1.21 c-2.04 0 -3.5466 -0.65334 -4.52 -1.96 l1.58 -1.36 c0.30666 0.48 0.72666 0.85334 1.26 1.12 s1.1133 0.4 1.74 0.4 c0.78666 0 1.4533 -0.22666 2 -0.68 s0.82 -1.0133 0.82 -1.68 c0 -0.49334 -0.16666 -0.90668 -0.5 -1.24 s-0.93334 -0.63334 -1.8 -0.9 l-1.26 -0.42 c-1.2667 -0.42666 -2.1534 -0.97 -2.66 -1.63 s-0.76 -1.51 -0.76 -2.55 c0 -1.1067 0.44666 -2.0466 1.34 -2.82 s2.0466 -1.16 3.46 -1.16 z M208.13200000000003 5.84 l0 1.8 l-7.22 0 l0 4.22 l6.72 0 l0 1.8 l-6.72 0 l0 4.54 l7.58 0 l0 1.8 l-9.5 0 l0 -14.16 l9.14 0 z M219.91600000000003 5.84 c1.3867 0 2.4734 0.34666 3.26 1.04 s1.18 1.6667 1.18 2.92 c0 0.94666 -0.32334 1.7733 -0.97 2.48 s-1.4767 1.1267 -2.49 1.26 l-0.02 0 l4.02 6.46 l-2.4 0 l-3.6 -6.24 l-2.14 0 l0 6.24 l-1.92 0 l0 -14.16 l5.08 0 z M219.35600000000002 12.08 c1 0 1.7433 -0.18336 2.23 -0.55002 s0.73 -0.94332 0.73 -1.73 c0 -1.52 -0.98666 -2.28 -2.96 -2.28 l-2.6 0 l0 4.56 l2.6 0 z M231.08 5.84 l4.16 11.52 l0.04 0 l4.32 -11.52 l2.1 0 l-5.58 14.16 l-1.8 0 l-5.46 -14.16 l2.22 0 z M248.94400000000002 5.84 l0 14.16 l-1.92 0 l0 -14.16 l1.92 0 z M262.708 5.48 c1 0 1.9367 0.18664 2.81 0.55998 s1.59 0.92 2.15 1.64 l-1.6 1.22 c-0.86666 -1.08 -2.0066 -1.62 -3.42 -1.62 c-1.5333 0 -2.7966 0.54666 -3.79 1.64 s-1.49 2.4666 -1.49 4.12 c0 1.6 0.49 2.92 1.47 3.96 s2.25 1.56 3.81 1.56 s2.7934 -0.63334 3.7 -1.9 l1.62 1.22 c-0.56 0.74666 -1.3067 1.3467 -2.24 1.8 s-1.9733 0.68 -3.12 0.68 c-1.36 0 -2.5934 -0.33 -3.7 -0.99 s-1.98 -1.5667 -2.62 -2.72 s-0.96 -2.3634 -0.96 -3.63 c0 -2.1866 0.68666 -3.99 2.06 -5.41 s3.1466 -2.13 5.32 -2.13 z M283.05199999999996 5.84 l0 1.8 l-7.22 0 l0 4.22 l6.72 0 l0 1.8 l-6.72 0 l0 4.54 l7.58 0 l0 1.8 l-9.5 0 l0 -14.16 l9.14 0 z M293.816 5.48 c1.84 0 3.2 0.54006 4.08 1.6201 l-1.56 1.42 c-0.24 -0.37334 -0.58 -0.67334 -1.02 -0.9 s-0.94666 -0.34 -1.52 -0.34 c-0.82666 0 -1.49 0.20334 -1.99 0.61 s-0.75 0.93 -0.75 1.57 c0 1.0667 0.70666 1.8133 2.12 2.24 l1.78 0.58 c1 0.32 1.7633 0.76666 2.29 1.34 s0.79 1.36 0.79 2.36 c0 1.3067 -0.46334 2.3634 -1.39 3.17 s-2.1034 1.21 -3.53 1.21 c-2.04 0 -3.5466 -0.65334 -4.52 -1.96 l1.58 -1.36 c0.30666 0.48 0.72666 0.85334 1.26 1.12 s1.1133 0.4 1.74 0.4 c0.78666 0 1.4533 -0.22666 2 -0.68 s0.82 -1.0133 0.82 -1.68 c0 -0.49334 -0.16666 -0.90668 -0.5 -1.24 s-0.93334 -0.63334 -1.8 -0.9 l-1.26 -0.42 c-1.2667 -0.42666 -2.1534 -0.97 -2.66 -1.63 s-0.76 -1.51 -0.76 -2.55 c0 -1.1067 0.44666 -2.0466 1.34 -2.82 s2.0466 -1.16 3.46 -1.16 z"></path></g></svg>